<?xml version="1.0" encoding="utf-8"?>
<!-- Generator: Adobe Illustrator 28.2.0, SVG Export Plug-In . SVG Version: 6.00 Build 0)  -->
<svg version="1.1" id="Layer_1" xmlns="http://www.w3.org/2000/svg" xmlns:xlink="http://www.w3.org/1999/xlink" x="0px" y="0px"
	 viewBox="0 0 256 256" style="enable-background:new 0 0 256 256;" xml:space="preserve">
<style type="text/css">
	.st0{fill-rule:evenodd;clip-rule:evenodd;fill:#E4332E;}
	.st1{fill-rule:evenodd;clip-rule:evenodd;fill:#FFFFFF;}
	.st2{fill-rule:evenodd;clip-rule:evenodd;fill:#161616;}
</style>
<g id="Styleguide_00000020359264441419819310000002335417490529018760_">
	<g id="_x36_" transform="translate(-403.000000, -399.000000)">
		<g id="IlovePDF_quadrat" transform="translate(403.000000, 399.000000)">
			<path id="Path" class="st0" d="M168.19,45.72c-5.41,2.61-9.46,7.02-12.43,12.02c-4.76-8.02-12.33-14.53-23.8-14.53
				c-11.47,0-25.54,9.76-25.54,26.24c0,16.69,13.9,24.6,20.78,29.06c7.36,4.77,19.91,13.44,28.56,29.49
				c8.66-16.05,21.21-24.72,28.57-29.49c5.17-3.36,14.31-8.66,18.52-18.18L168.19,45.72z"/>
			<polygon id="Path_00000055695847923749439380000004100667915875570834_" class="st1" points="167.34,81.16 167.34,49.94 
				198.87,81.16 			"/>
			<path id="Fill-4_00000019673554803063793750000018257018336841842573_" class="st2" d="M53.46,113.11H58c1.44,0,3.1-2,3.1-3.33
				V61.46c0-1.33-1.66-3.22-3.1-3.22h-4.54V46.57h36.43v11.66h-4.65c-1.44,0-2.99,1.89-2.99,3.22v48.32c0,1.33,1.55,3.33,2.99,3.33
				h4.65v11.22H53.46V113.11z"/>
			<path id="Fill-6_00000029745480749211741510000006733727620104887206_" class="st2" d="M60.48,177.22
				c8.26,0,10.42-4.74,10.42-11.36c0-6.52-2.16-11.17-10.42-11.17h-5.7v22.53H60.48z M30.19,202.81h3.34c1.38,0,2.85-1.78,2.85-2.96
				v-42.99c0-1.19-1.48-2.87-2.85-2.87h-3.34v-10.38h31.27c18.39,0,28.42,6.52,28.42,21.94c0,15.02-10.62,21.84-29.11,21.84h-5.7
				v15.42h7.97v9.98H30.19V202.81z"/>
			<path id="Fill-8_00000039107568042235627840000005480230747199646096_" class="st2" d="M125.55,202.32
				c12.41,0,18.51-7.41,18.51-24.02c0-16.5-6.01-23.62-18.51-23.62h-4.63v47.64H125.55z M96.01,202.81h3.35
				c1.38,0,2.85-1.78,2.85-2.96v-42.99c0-1.19-1.48-2.87-2.85-2.87h-3.35v-10.38h30.03c24.52,0,37.32,10.67,37.32,34.2
				c0,23.13-13,34.99-37.81,34.99H96.01V202.81z"/>
			<path id="Fill-10_00000071527218646828488430000017225827178415660426_" class="st2" d="M169.79,202.81h3.35
				c1.38,0,2.85-1.78,2.85-2.97v-42.99c0-1.19-1.48-2.87-2.85-2.87h-3.35v-10.38h56.02v21.35h-11.03l-1.67-10.18h-18.41v19.37h8.96
				l0.79-6.52h10.14v24.02h-10.14l-0.79-6.82h-8.96v17.99h7.98v9.98h-32.88V202.81z"/>
		</g>
	</g>
</g>
</svg>
